HIERARCHY
ROOT RootJoint
{
    OFFSET   0.000000   0.000000   0.000000
    CHANNELS 6 Xposition Yposition Zposition Xrotation Yrotation Zrotation
    JOINT pelvis_lowerback
    {
        OFFSET   0.000000   0.093605   0.000000
        CHANNELS 3 Xrotation Yrotation Zrotation
        JOINT lowerback_torso
        {
            OFFSET   0.000000   0.100000   0.000000
            CHANNELS 3 Xrotation Yrotation Zrotation
            JOINT torso_head
            {
                OFFSET   0.000000   0.282350   0.000000
                CHANNELS 3 Xrotation Yrotation Zrotation
                End Site
                {
                    OFFSET   0.000000   0.192650   0.000000
                }
            }
            JOINT rTorso_Clavicle
            {
                OFFSET  -0.001000   0.157500   0.000000
                CHANNELS 3 Xrotation Yrotation Zrotation
                JOINT rShoulder
                {
                    OFFSET  -0.117647   0.000000   0.000000
                    CHANNELS 3 Xrotation Yrotation Zrotation
                    JOINT rElbow
                    {
                        OFFSET  -0.245000   0.000000   0.000000
                        CHANNELS 3 Xrotation Yrotation Zrotation
                        JOINT rWrist
                        {
                            OFFSET  -0.240000   0.000000   0.000000
                            CHANNELS 3 Xrotation Yrotation Zrotation
                            End Site
                            {
                                OFFSET  -0.116353  -0.002500   0.000000
                            }
                        }
                    }
                }
            }
            JOINT lTorso_Clavicle
            {
                OFFSET   0.001000   0.157500   0.000000
                CHANNELS 3 Xrotation Yrotation Zrotation
                JOINT lShoulder
                {
                    OFFSET   0.117647   0.000000   0.000000
                    CHANNELS 3 Xrotation Yrotation Zrotation
                    JOINT lElbow
                    {
                        OFFSET   0.245000   0.000000   0.000000
                        CHANNELS 3 Xrotation Yrotation Zrotation
                        JOINT lWrist
                        {
                            OFFSET   0.240000   0.000000   0.000000
                            CHANNELS 3 Xrotation Yrotation Zrotation
                            End Site
                            {
                                OFFSET   0.116353  -0.002500   0.000000
                            }
                        }
                    }
                }
            }
        }
    }
    JOINT rHip
    {
        OFFSET  -0.100000  -0.051395   0.000000
        CHANNELS 3 Xrotation Yrotation Zrotation
        JOINT rKnee
        {
            OFFSET   0.000000  -0.410000   0.000000
            CHANNELS 3 Xrotation Yrotation Zrotation
            JOINT rAnkle
            {
                OFFSET   0.000000  -0.390000   0.000000
                CHANNELS 3 Xrotation Yrotation Zrotation
                JOINT rToeJoint
                {
                    OFFSET   0.000000  -0.050000   0.130000
                    CHANNELS 3 Xrotation Yrotation Zrotation
                    End Site
                    {
                        OFFSET  -0.010000   0.002000   0.060000
                    }
                }
            }
        }
    }
    JOINT lHip
    {
        OFFSET   0.100000  -0.051395   0.000000
        CHANNELS 3 Xrotation Yrotation Zrotation
        JOINT lKnee
        {
            OFFSET   0.000000  -0.410000   0.000000
            CHANNELS 3 Xrotation Yrotation Zrotation
            JOINT lAnkle
            {
                OFFSET   0.000000  -0.390000   0.000000
                CHANNELS 3 Xrotation Yrotation Zrotation
                JOINT lToeJoint
                {
                    OFFSET   0.000000  -0.050000   0.130000
                    CHANNELS 3 Xrotation Yrotation Zrotation
                    End Site
                    {
                        OFFSET   0.010000   0.002000   0.060000
                    }
                }
            }
        }
    }
}
MOTION
Frames: 17
Frame Time:   0.008333
 -2.360739   0.909190   4.694243  -4.955046   6.014424   0.378191   9.489065   4.380795   0.246755   2.531489   0.275296   1.036463  -2.573575   0.549104   1.446356   1.371701   3.518449  12.741019   7.179882  13.820141  37.872241   0.000419  18.758930  -0.000512  11.221284   2.387964   1.605301   2.390187   0.443427 -13.519482  13.385436  -8.198037 -43.250033  -0.002070 -13.549781   0.000233   9.571941  -2.275645  -3.921866  13.762995   1.998620   4.431606   7.344247  -0.000026  -0.000241  -9.979555   4.531683  -5.047078  -8.979275  -0.000001   0.000007 -22.032476  -5.724538   1.378743  19.615411   0.000091   0.004032  -7.627900   3.603847  -1.406354  -0.455768   0.000090  -0.000090
 -2.359994   0.908192   4.698898  -4.869176   5.995698   0.390894   9.399493   4.427438   0.214112   2.589282   0.295308   1.047906  -2.581243   0.599780   1.449412   1.368118   3.567188  12.809211   7.151180  13.923932  37.913090   0.000398  18.804165  -0.000469  11.219607   2.389226   1.604914   2.369737   0.510615 -13.584059  13.461546  -8.156820 -43.326340  -0.002115 -13.233222   0.000331   9.575734  -2.222067  -3.909408  13.987802   1.948584   4.383576   7.417539  -0.000020  -0.000249 -10.354267   4.617595  -5.031332  -8.984031  -0.000001   0.000006 -22.147464  -5.737001   1.349937  18.211197  -0.000018   0.003716  -7.432268   3.470410  -1.454171  -0.513894   0.000005   0.000031
 -2.359211   0.907147   4.703630  -4.779054   5.979749   0.399083   9.306415   4.468313   0.185669   2.640965   0.312625   1.058195  -2.588934   0.648021   1.451025   1.368717   3.609791  12.879005   7.126315  14.019394  37.956207   0.000375  18.845422  -0.000424  11.218069   2.387504   1.614691   2.352774   0.575744 -13.646140  13.534224  -8.115949 -43.397767  -0.002105 -12.935019   0.000390   9.579269  -2.150493  -3.893359  14.214153   1.901459   4.338531   7.490195  -0.000015  -0.000252 -10.731817   4.698338  -5.013926  -8.993566  -0.000001   0.000004 -22.255165  -5.750887   1.331745  16.889114  -0.000038   0.003384  -7.249776   3.344642  -1.498439  -0.563495  -0.000045   0.000107
 -2.358391   0.906077   4.708427  -4.683826   5.965459   0.401817   9.213214   4.505215   0.161138   2.685998   0.327650   1.069134  -2.597220   0.693020   1.452276   1.372012   3.647569  12.948448   7.104551  14.107215  37.999448   0.000352  18.883148  -0.000381  11.216555   2.383238   1.630587   2.337812   0.637665 -13.706104  13.602562  -8.077286 -43.465382  -0.002054 -12.656262   0.000414   9.582864  -2.076822  -3.877980  14.439585   1.857140   4.297082   7.561908  -0.000009  -0.000253 -11.100263   4.773437  -4.995571  -9.023262  -0.000001   0.000004 -22.357825  -5.765088   1.323111  15.654869  -0.000016   0.003049  -7.079701   3.227145  -1.539101  -0.609594  -0.000077   0.000157
 -2.357530   0.904996   4.713287  -4.582080   5.951474   0.400299   9.120578   4.538745   0.139318   2.724856   0.340712   1.080284  -2.605827   0.735000   1.453414   1.377002   3.681505  13.016344   7.085218  14.188333  38.041974   0.000328  18.917820  -0.000340  11.215090   2.377238   1.650340   2.323929   0.695911 -13.763789  13.666242  -8.041327 -43.529400  -0.001974 -12.396158   0.000410   9.586240  -2.006145  -3.863889  14.661691   1.815353   4.257321   7.633035  -0.000004  -0.000251 -11.454119   4.843237  -4.976325  -9.080396  -0.000001   0.000005 -22.455069  -5.779171   1.321377  14.504405   0.000019   0.002739  -6.921103   3.117411  -1.576479  -0.652456  -0.000095   0.000188
 -2.356627   0.903912   4.718205  -4.472450   5.936992   0.395474   9.028773   4.569134   0.119416   2.757867   0.351936   1.091089  -2.614579   0.774166   1.454465   1.383023   3.712232  13.081798   7.067854  14.263455  38.083192   0.000305  18.949828  -0.000303  11.213674   2.370277   1.672418   2.310610   0.750325 -13.818923  13.725265  -8.008191 -43.589867  -0.001875 -12.153686   0.000383   9.589301  -1.940128  -3.850891  14.878587   1.775844   4.217781   7.703690   0.000002  -0.000249 -11.790488   4.908039  -4.956175  -9.168676  -0.000001   0.000008 -22.546427  -5.792923   1.324526  13.432621   0.000053   0.002467  -6.773180   3.014926  -1.610873  -0.692333  -0.000103   0.000205
 -2.355681   0.902829   4.723180  -4.353755   5.921588   0.387926   8.937946   4.596510   0.100926   2.785331   0.361367   1.101177  -2.623379   0.810706   1.455423   1.389631   3.740166  13.144145   7.052143  14.333115  38.122643   0.000282  18.979461  -0.000269  11.212303   2.362834   1.695631   2.297547   0.800905 -13.871249  13.779770  -7.977843 -43.646781  -0.001762 -11.927779   0.000339   9.592022  -1.879306  -3.838611  15.088882   1.738383   4.177523   7.773781   0.000009  -0.000247 -12.107982   4.968110  -4.935096  -9.289690  -0.000001   0.000014 -22.631514  -5.806218   1.331186  12.434494   0.000076   0.002233  -6.635200   2.919207  -1.642551  -0.729455  -0.000106   0.000212
 -2.354717   0.901770   4.728296  -4.269889   5.879922   0.393622   8.841468   4.636227   0.063038   2.863803   0.387668   1.106360  -2.623845   0.855787   1.456324   1.384270   3.761718  13.177631   7.040945  14.403905  38.224931   0.000214  18.972100  -0.000208  11.191854   2.366064   1.706578   2.265448   0.871674 -13.905160  13.753382  -7.925984 -43.715849  -0.001638 -11.694787   0.000509   9.566495  -1.817423  -3.805973  15.302651   1.693930   4.111454   7.919717   0.000029  -0.000333 -12.389681   5.011020  -4.746923  -9.795919   0.000671   0.000319 -22.713228  -5.811142   1.332826  11.702392   0.000092   0.002098  -6.390691   2.783161  -1.648852  -0.780049  -0.000098   0.000258
 -2.353680   0.900774   4.733544  -4.191620   5.833552   0.402715   8.740761   4.673452   0.025595   2.942465   0.412767   1.106929  -2.621407   0.898816   1.455340   1.388319   3.775387  13.215409   7.035923  14.465320  38.327565   0.000156  18.962168  -0.000158  11.172392   2.356814   1.737700   2.236299   0.941985 -13.940527  13.728488  -7.876471 -43.781647  -0.001520 -11.477357   0.000617   9.538396  -1.757574  -3.763322  15.522213   1.659015   4.047443   8.080285   0.000041  -0.000405 -12.663560   5.087660  -4.747555 -10.021328   0.000498   0.000256 -22.771648  -5.816392   1.329381  11.057423   0.000071   0.001994  -6.158540   2.655696  -1.654181  -0.811967  -0.000086   0.000260
 -2.352565   0.899816   4.738890  -4.106038   5.776237   0.413222   8.635376   4.708958  -0.011665   3.011655   0.435992   1.104502  -2.620003   0.939226   1.453575   1.397284   3.783844  13.253168   7.034322  14.519741  38.426791   0.000110  18.951486  -0.000120  11.153975   2.341483   1.780127   2.211433   1.010688 -13.975367  13.706583  -7.828957 -43.845424  -0.001404 -11.274193   0.000664   9.511008  -1.701149  -3.724413  15.734529   1.620732   3.975632   8.246168   0.000051  -0.000487 -12.899516   5.152050  -4.747496 -10.324891   0.000338   0.000261 -22.815159  -5.820725   1.324475  10.466861   0.000032   0.001944  -5.941300   2.536748  -1.658595  -0.840057  -0.000077   0.000256
 -2.351377   0.898875   4.744318  -4.010075   5.712836   0.423481   8.527289   4.740090  -0.047508   3.070518   0.455725   1.100445  -2.620035   0.976909   1.451579   1.408662   3.788714  13.288424   7.034700  14.568512  38.520565   0.000073  18.940702  -0.000090  11.136348   2.323100   1.826572   2.189218   1.076137 -14.008342  13.686712  -7.784087 -43.906229  -0.001287 -11.084578   0.000661   9.484555  -1.648339  -3.690258  15.938497   1.584684   3.896852   8.412944   0.000065  -0.000559 -13.106530   5.212334  -4.746279 -10.686139   0.000194   0.000287 -22.849196  -5.824831   1.318698   9.921513  -0.000017   0.001909  -5.738367   2.425660  -1.662238  -0.865774  -0.000068   0.000248
 -2.350121   0.897933   4.749816  -3.902488   5.645366   0.432080   8.418069   4.766643  -0.081298   3.119772   0.471689   1.095600  -2.621241   1.012001   1.449604   1.421046   3.791092  13.320180   7.036244  14.612538  38.607976   0.000045  18.930108  -0.000068  11.119442   2.302966   1.872863   2.168315   1.137374 -14.038707  13.668025  -7.742320 -43.963239  -0.001170 -10.907882   0.000622   9.459014  -1.599726  -3.658846  16.134220   1.550806   3.813084   8.577743   0.000081  -0.000618 -13.290824   5.268735  -4.743797 -11.091630   0.000064   0.000325 -22.876492  -5.828729   1.313340   9.416320  -0.000069   0.001874  -5.548886   2.321938  -1.665211  -0.889518  -0.000062   0.000237
 -2.348801   0.896980   4.755379  -3.782611   5.575008   0.438033   8.308826   4.788817  -0.112715   3.160388   0.484005   1.090467  -2.623331   1.044676   1.447750   1.433660   3.791689  13.348144   7.038484  14.652472  38.688798   0.000024  18.919852  -0.000051  11.103233   2.281763   1.916892   2.147928   1.194001 -14.066137  13.649997  -7.703838 -44.016062  -0.001054 -10.743425   0.000559   9.434337  -1.555748  -3.628373  16.321891   1.518981   3.725767   8.738912   0.000098  -0.000664 -13.456732   5.321617  -4.740562 -11.532174  -0.000056   0.000372 -22.898593  -5.832451   1.309248   8.947628  -0.000120   0.001832  -5.371996   2.225113  -1.667604  -0.911472  -0.000056   0.000225
 -2.347372   0.896188   4.761172  -3.710247   5.467240   0.489270   8.218601   4.868150  -0.187929   3.224878   0.522243   1.069650  -2.625129   1.050799   1.449835   1.479758   3.770042  13.332607   7.070957  14.710506  38.842023  -0.000060  18.872468   0.000008  11.072725   2.272185   1.939221   2.117390   1.267175 -14.105573  13.528777  -7.638942 -44.029531  -0.000913 -10.550183   0.000787   9.397401  -1.533588  -3.605612  16.563596   1.556904   3.581974   8.903931   0.000131  -0.000640 -13.548713   5.322742  -4.726618 -12.109741  -0.000106   0.000450 -22.911061  -5.837931   1.249046   8.843771  -0.000130   0.001589  -5.035081   2.127747  -1.587018  -0.873348  -0.000058   0.000106
 -2.345856   0.895492   4.767129  -3.632722   5.338024   0.552010   8.115293   4.956131  -0.273083   3.282890   0.566122   1.038996  -2.626640   1.057698   1.449352   1.537104   3.741180  13.321558   7.110226  14.758219  38.995263  -0.000127  18.824197   0.000050  11.045727   2.247205   2.000304   2.091288   1.342941 -14.137683  13.416956  -7.574565 -44.037742  -0.000784 -10.369150   0.000943   9.357480  -1.510821  -3.566269  16.798439   1.596929   3.414495   9.081906   0.000167  -0.000653 -13.579802   5.323967  -4.709524 -12.800589  -0.000152   0.000588 -22.892809  -5.842640   1.172707   8.812126  -0.000119   0.001316  -4.713846   2.037026  -1.511506  -0.813630  -0.000059  -0.000040
 -2.344266   0.894834   4.773199  -3.538932   5.201404   0.615352   8.001566   5.039245  -0.358155   3.327615   0.607330   1.004904  -2.630293   1.064507   1.447169   1.596572   3.708869  13.310549   7.150709  14.799158  39.140780  -0.000172  18.777525   0.000073  11.020329   2.215110   2.075570   2.070420   1.417967 -14.163154  13.315252  -7.511440 -44.044108  -0.000668 -10.199394   0.001020   9.318757  -1.487063  -3.525323  17.017046   1.634525   3.237442   9.266038   0.000203  -0.000682 -13.569205   5.325524  -4.689248 -13.567239  -0.000192   0.000750 -22.854411  -5.846938   1.090149   8.802098  -0.000100   0.001068  -4.412782   1.952449  -1.440726  -0.755939  -0.000053  -0.000153
 -2.342612   0.894173   4.779352  -3.426588   5.062643   0.674997   7.881682   5.115033  -0.439848   3.359650   0.643820   0.970239  -2.635877   1.070837   1.444376   1.654476   3.675459  13.297078   7.190247  14.835274  39.275913  -0.000198  18.733273   0.000082  10.996046   2.180370   2.151667   2.052339   1.489665 -14.182715  13.221605  -7.451015 -44.048388  -0.000562 -10.040606   0.001031   9.281566  -1.463060  -3.484832  17.219555   1.668549   3.057198   9.450642   0.000237  -0.000716 -13.532126   5.326327  -4.665478 -14.381205  -0.000227   0.000924 -22.803487  -5.850727   1.006300   8.801953  -0.000081   0.000854  -4.131339   1.873693  -1.374332  -0.702550  -0.000043  -0.000233
